<svg width="1600" height="900" viewBox="0 0 1600 900" fill="none" xmlns="http://www.w3.org/2000/svg">
  <defs>
    <marker id="arrow" markerWidth="10" markerHeight="10" refX="8" refY="5" orient="auto" markerUnits="strokeWidth">
      <path d="M0 0L10 5L0 10Z" fill="#475569"/>
    </marker>
    <marker id="arrowPurple" markerWidth="10" markerHeight="10" refX="8" refY="5" orient="auto" markerUnits="strokeWidth">
      <path d="M0 0L10 5L0 10Z" fill="#7c3aed"/>
    </marker>
    <filter id="shadow" x="-10%" y="-10%" width="120%" height="130%">
      <feDropShadow dx="0" dy="5" stdDeviation="5" flood-color="#0f172a" flood-opacity="0.10"/>
    </filter>
    <style>
      .title { font: 700 32px Arial, sans-serif; fill: #0f172a; }
      .subtitle { font: 600 15px Arial, sans-serif; fill: #475569; }
      .layerTitle { font: 700 18px Arial, sans-serif; fill: #0f172a; }
      .cardTitle { font: 700 15px Arial, sans-serif; fill: #0f172a; }
      .cardText { font: 500 12px Arial, sans-serif; fill: #475569; }
      .badge { font: 700 11px Arial, sans-serif; fill: #064e3b; }
      .purpleBadge { font: 700 11px Arial, sans-serif; fill: #4c1d95; }
      .footer { font: 600 14px Arial, sans-serif; fill: #334155; }
      .chip { font: 700 10px Arial, sans-serif; fill: #334155; }
    </style>
  </defs>

  <rect width="1600" height="900" fill="#ffffff"/>
  <rect x="0" y="0" width="1600" height="14" fill="#0f172a"/>

  <!-- Header -->
  <text x="64" y="56" class="title">EvidenceGraph Ranker — System Architecture</text>
  <text x="64" y="84" class="subtitle">Gemini AI reasoning core with deterministic evidence grounding, trust controls and recruiter-facing outputs</text>
  <rect x="1225" y="42" width="300" height="38" rx="19" fill="#eef2ff" stroke="#6366f1"/>
  <text x="1252" y="66" class="subtitle">Gemini Core + Auditable Guardrails</text>

  <!-- Experience Layer -->
  <rect x="58" y="115" width="1484" height="102" rx="18" fill="#eff6ff" stroke="#60a5fa" stroke-width="2" filter="url(#shadow)"/>
  <text x="88" y="149" class="layerTitle">Experience Layer</text>
  <rect x="250" y="139" width="245" height="54" rx="12" fill="#ffffff" stroke="#bfdbfe"/>
  <text x="274" y="162" class="cardTitle">Recruiter Console</text>
  <text x="274" y="181" class="cardText">Dashboard • Candidates • Compare</text>
  <rect x="525" y="139" width="245" height="54" rx="12" fill="#ffffff" stroke="#bfdbfe"/>
  <text x="549" y="162" class="cardTitle">Trust &amp; Evaluation View</text>
  <text x="549" y="181" class="cardText">Trust audit • quality • performance</text>
  <rect x="800" y="139" width="245" height="54" rx="12" fill="#ffffff" stroke="#bfdbfe"/>
  <text x="824" y="162" class="cardTitle">Batch Ranking Interface</text>
  <text x="824" y="181" class="cardText">Bulk runs • validation • exports</text>
  <rect x="1075" y="139" width="245" height="54" rx="12" fill="#ffffff" stroke="#bfdbfe"/>
  <text x="1099" y="162" class="cardTitle">Recruiter Review Loop</text>
  <text x="1099" y="181" class="cardText">Verification checks • feedback</text>

  <!-- Application Layer -->
  <rect x="58" y="242" width="1484" height="126" rx="18" fill="#f8fafc" stroke="#94a3b8" stroke-width="2" filter="url(#shadow)"/>
  <text x="88" y="276" class="layerTitle">Application &amp; Orchestration Layer</text>
  <rect x="195" y="290" width="190" height="54" rx="12" fill="#ffffff" stroke="#cbd5e1"/>
  <text x="219" y="313" class="cardTitle">API Gateway</text>
  <text x="219" y="332" class="cardText">Requests • uploads • auth-ready</text>
  <rect x="415" y="290" width="235" height="54" rx="12" fill="#ffffff" stroke="#cbd5e1"/>
  <text x="439" y="313" class="cardTitle">Ranking Orchestrator</text>
  <text x="439" y="332" class="cardText">Runs • latest payload • assembly</text>
  <rect x="680" y="290" width="200" height="54" rx="12" fill="#ffffff" stroke="#cbd5e1"/>
  <text x="704" y="313" class="cardTitle">Comparison Service</text>
  <text x="704" y="332" class="cardText">A/B evidence decisions</text>
  <rect x="910" y="290" width="200" height="54" rx="12" fill="#ffffff" stroke="#cbd5e1"/>
  <text x="934" y="313" class="cardTitle">Reporting Service</text>
  <text x="934" y="332" class="cardText">Exports • battle cards</text>
  <rect x="1140" y="290" width="190" height="54" rx="12" fill="#ffffff" stroke="#cbd5e1"/>
  <text x="1164" y="313" class="cardTitle">Trust Service</text>
  <text x="1164" y="332" class="cardText">Audit • warnings • health</text>
  <rect x="1360" y="290" width="135" height="54" rx="12" fill="#ffffff" stroke="#cbd5e1"/>
  <text x="1382" y="313" class="cardTitle">AI Service</text>
  <text x="1382" y="332" class="cardText">JSON insight</text>

  <!-- Central intelligence area background -->
  <rect x="58" y="395" width="1484" height="268" rx="22" fill="#fbfdff" stroke="#dbeafe" stroke-width="2"/>

  <!-- Gemini AI Core -->
  <rect x="90" y="425" width="640" height="208" rx="20" fill="#f5f3ff" stroke="#7c3aed" stroke-width="2.5" filter="url(#shadow)"/>
  <text x="122" y="459" class="layerTitle">Gemini AI Intelligence Core</text>
  <rect x="555" y="437" width="125" height="24" rx="12" fill="#ede9fe" stroke="#7c3aed"/>
  <text x="576" y="453" class="purpleBadge">CORE AI BRAIN</text>
  <rect x="122" y="485" width="170" height="50" rx="12" fill="#ffffff" stroke="#c4b5fd"/>
  <text x="145" y="507" class="cardTitle">Deep JD Insight</text>
  <text x="145" y="525" class="cardText">Intent, constraints, success signals</text>
  <rect x="314" y="485" width="170" height="50" rx="12" fill="#ffffff" stroke="#c4b5fd"/>
  <text x="337" y="507" class="cardTitle">Contextual Fit</text>
  <text x="337" y="525" class="cardText">Semantic relevance beyond keywords</text>
  <rect x="506" y="485" width="182" height="50" rx="12" fill="#ffffff" stroke="#c4b5fd"/>
  <text x="529" y="507" class="cardTitle">Semantic Skill Map</text>
  <text x="529" y="525" class="cardText">Synonyms and adjacent evidence</text>
  <rect x="122" y="556" width="170" height="48" rx="12" fill="#ffffff" stroke="#c4b5fd"/>
  <text x="145" y="578" class="cardTitle">Recruiter Notes</text>
  <text x="145" y="596" class="cardText">Friendly explanations</text>
  <rect x="314" y="556" width="170" height="48" rx="12" fill="#ffffff" stroke="#c4b5fd"/>
  <text x="337" y="578" class="cardTitle">Hidden Gems</text>
  <text x="337" y="596" class="cardText">Non-obvious strong matches</text>
  <rect x="506" y="556" width="182" height="48" rx="12" fill="#ffffff" stroke="#c4b5fd"/>
  <text x="529" y="578" class="cardTitle">Interview Focus</text>
  <text x="529" y="596" class="cardText">Verification questions</text>

  <!-- Evidence grounding -->
  <rect x="770" y="425" width="730" height="208" rx="20" fill="#ecfdf5" stroke="#14b8a6" stroke-width="2.5" filter="url(#shadow)"/>
  <text x="802" y="459" class="layerTitle">Evidence Grounding &amp; Ranking Guardrails</text>
  <rect x="1295" y="437" width="150" height="24" rx="12" fill="#dcfce7" stroke="#16a34a"/>
  <text x="1314" y="453" class="badge">AUDITABLE RANKING</text>
  <rect x="802" y="485" width="152" height="50" rx="12" fill="#ffffff" stroke="#99f6e4"/>
  <text x="825" y="507" class="cardTitle">Job Matrix</text>
  <text x="825" y="525" class="cardText">Must-have • constraints</text>
  <rect x="976" y="485" width="152" height="50" rx="12" fill="#ffffff" stroke="#99f6e4"/>
  <text x="999" y="507" class="cardTitle">Candidate Signals</text>
  <text x="999" y="525" class="cardText">Profile • career • activity</text>
  <rect x="1150" y="485" width="152" height="50" rx="12" fill="#ffffff" stroke="#16a34a" stroke-width="2"/>
  <text x="1173" y="507" class="cardTitle">Score Calibration</text>
  <text x="1173" y="525" class="cardText">Fit • proof • risk</text>
  <rect x="1324" y="485" width="140" height="50" rx="12" fill="#ffffff" stroke="#99f6e4"/>
  <text x="1347" y="507" class="cardTitle">Rank Guardrail</text>
  <text x="1347" y="525" class="cardText">Stable ordering</text>
  <rect x="850" y="556" width="152" height="48" rx="12" fill="#ffffff" stroke="#99f6e4"/>
  <text x="873" y="578" class="cardTitle">Evidence Ledger</text>
  <text x="873" y="596" class="cardText">Claims vs proof</text>
  <rect x="1024" y="556" width="152" height="48" rx="12" fill="#ffffff" stroke="#99f6e4"/>
  <text x="1054" y="578" class="cardTitle">Risk Radar</text>
  <text x="1054" y="596" class="cardText">Concerns and impact</text>
  <rect x="1198" y="556" width="152" height="48" rx="12" fill="#ffffff" stroke="#99f6e4"/>
  <text x="1225" y="578" class="cardTitle">Review Tags</text>
  <text x="1225" y="596" class="cardText">Why not higher</text>

  <!-- Data & Artifact Layer -->
  <rect x="58" y="690" width="1484" height="124" rx="18" fill="#fff7ed" stroke="#fb923c" stroke-width="2" filter="url(#shadow)"/>
  <text x="88" y="724" class="layerTitle">Data, Payload &amp; Artifact Layer</text>
  <rect x="210" y="736" width="170" height="50" rx="12" fill="#ffffff" stroke="#fed7aa"/>
  <text x="236" y="758" class="cardTitle">Source Data</text>
  <text x="236" y="776" class="cardText">Jobs • profiles • signals</text>
  <rect x="410" y="736" width="200" height="50" rx="12" fill="#ffffff" stroke="#fed7aa"/>
  <text x="436" y="758" class="cardTitle">Normalized Records</text>
  <text x="436" y="776" class="cardText">Validated candidate model</text>
  <rect x="640" y="736" width="220" height="50" rx="12" fill="#ffffff" stroke="#fed7aa"/>
  <text x="666" y="758" class="cardTitle">EvidenceGraph Payload</text>
  <text x="666" y="776" class="cardText">Scores • evidence • AI metadata</text>
  <rect x="890" y="736" width="185" height="50" rx="12" fill="#ffffff" stroke="#fed7aa"/>
  <text x="916" y="758" class="cardTitle">Submission Files</text>
  <text x="916" y="776" class="cardText">Ranked CSV and JSON</text>
  <rect x="1105" y="736" width="190" height="50" rx="12" fill="#ffffff" stroke="#fed7aa"/>
  <text x="1131" y="758" class="cardTitle">Reports</text>
  <text x="1131" y="776" class="cardText">Battlecards • eval • runtime</text>
  <rect x="1325" y="736" width="160" height="50" rx="12" fill="#ffffff" stroke="#fed7aa"/>
  <text x="1351" y="758" class="cardTitle">Secure Config</text>
  <text x="1351" y="776" class="cardText">Local API key only</text>

  <!-- Architecture dependency arrows -->
  <line x1="800" y1="217" x2="800" y2="242" stroke="#475569" stroke-width="2.2" marker-end="url(#arrow)"/>
  <line x1="800" y1="368" x2="800" y2="395" stroke="#475569" stroke-width="2.2" marker-end="url(#arrow)"/>
  <line x1="730" y1="529" x2="770" y2="529" stroke="#7c3aed" stroke-width="2.4" stroke-dasharray="8 7" marker-end="url(#arrowPurple)"/>
  <line x1="770" y1="579" x2="730" y2="579" stroke="#7c3aed" stroke-width="2.4" stroke-dasharray="8 7" marker-end="url(#arrowPurple)"/>
  <text x="735" y="511" class="chip">AI insights</text>
  <text x="735" y="602" class="chip">evidence grounding</text>
  <line x1="1125" y1="663" x2="1125" y2="690" stroke="#475569" stroke-width="2.2" marker-end="url(#arrow)"/>
  <line x1="430" y1="690" x2="430" y2="633" stroke="#7c3aed" stroke-width="2.2" stroke-dasharray="8 7" marker-end="url(#arrowPurple)"/>
  <line x1="1398" y1="690" x2="1398" y2="633" stroke="#7c3aed" stroke-width="2.2" stroke-dasharray="8 7" marker-end="url(#arrowPurple)"/>

  <!-- Feedback loop -->
  <path d="M1198 217 C1198 242 1198 254 1198 290" stroke="#22c55e" stroke-width="2" stroke-dasharray="7 7" marker-end="url(#arrow)"/>
  <path d="M1198 139 C1198 104 250 103 250 139" stroke="#22c55e" stroke-width="2" stroke-dasharray="7 7" fill="none"/>
  <text x="660" y="112" class="chip">Recruiter feedback loop for future calibration</text>

  <!-- Footer -->
  <text x="64" y="858" class="footer">Architecture view: Gemini is the central AI reasoning layer; EvidenceGraph grounds recommendations with deterministic scoring, evidence ledgers, risk validation and auditable payloads.</text>
</svg>
