<svg width="1440" height="900" viewBox="0 0 1440 900" fill="none" xmlns="http://www.w3.org/2000/svg">
  <defs><filter id="shadow"><feDropShadow dx="0" dy="12" stdDeviation="14" flood-color="#000" flood-opacity=".35"/></filter><style>.h1{font:700 34px Arial,sans-serif;fill:#f8fafc}.h2{font:700 20px Arial,sans-serif;fill:#f8fafc}.label{font:700 12px Arial,sans-serif;fill:#94a3b8;letter-spacing:.04em}.body{font:500 15px Arial,sans-serif;fill:#cbd5e1}.strong{font:700 15px Arial,sans-serif;fill:#f8fafc}.num{font:700 24px Arial,sans-serif;fill:#fff}.small{font:600 12px Arial,sans-serif;fill:#a5b4fc}</style></defs>
  <rect width="1440" height="900" fill="#07111f"/><rect x="20" y="20" width="236" height="860" rx="22" fill="#0f172a" stroke="#1e293b"/><text x="52" y="66" class="h2">Recruiter Intelligence</text><text x="52" y="88" class="small">EvidenceGraph Ranker</text><text x="66" y="158" class="body">Dashboard</text><rect x="42" y="232" width="172" height="42" rx="10" fill="#2563eb"/><text x="66" y="258" class="strong">Candidates</text>
  <text x="300" y="62" class="small">RANK 1</text><text x="300" y="100" class="h1">CAND_DEMO_001</text><text x="300" y="130" class="body">Senior AI Engineer with role-relevant evidence in hybrid search, matching systems and dual encoder retrieval.</text>
  <rect x="300" y="166" width="350" height="250" rx="20" fill="#0c1a2e" stroke="#253756" filter="url(#shadow)"/><text x="326" y="204" class="h2">Score Breakdown</text>
  <text x="326" y="248" class="body">Fit</text><text x="610" y="248" class="num">100</text><rect x="326" y="262" width="284" height="10" rx="5" fill="#1e293b"/><rect x="326" y="262" width="284" height="10" rx="5" fill="#14b8a6"/>
  <text x="326" y="302" class="body">Proof</text><text x="610" y="302" class="num">47</text><rect x="326" y="316" width="284" height="10" rx="5" fill="#1e293b"/><rect x="326" y="316" width="134" height="10" rx="5" fill="#60a5fa"/>
  <text x="326" y="356" class="body">Confidence</text><text x="610" y="356" class="num">84</text><rect x="326" y="370" width="284" height="10" rx="5" fill="#1e293b"/><rect x="326" y="370" width="238" height="10" rx="5" fill="#14b8a6"/>
  <rect x="680" y="166" width="696" height="250" rx="20" fill="#0c1a2e" stroke="#253756" filter="url(#shadow)"/><text x="706" y="204" class="h2">Recruiter Reasoning</text>
  <text x="706" y="246" class="strong">Why shortlisted:</text><text x="835" y="246" class="body">Career-backed production search and ranking evidence.</text>
  <text x="706" y="286" class="strong">Best evidence:</text><text x="815" y="286" class="body">Owned semantic search, two-tower matching and retrieval evaluation.</text>
  <text x="706" y="326" class="strong">Main concern:</text><text x="815" y="326" class="body">No major concern from supplied fields.</text>
  <text x="706" y="366" class="strong">Interview focus:</text><text x="825" y="366" class="body">Validate architecture, retrieval metrics and ownership depth.</text>
  <rect x="300" y="452" width="1076" height="170" rx="20" fill="#0c1a2e" stroke="#1d4ed8" filter="url(#shadow)"/><text x="326" y="488" class="small">GEMINI ASSISTED INSIGHT</text><text x="326" y="522" class="h2">Contextual Fit & Signal Fusion</text>
  <rect x="326" y="546" width="160" height="48" rx="14" fill="#111c2f" stroke="#7c3aed"/><text x="348" y="576" class="body">JD Insight</text><rect x="506" y="546" width="180" height="48" rx="14" fill="#111c2f" stroke="#7c3aed"/><text x="528" y="576" class="body">Contextual Fit</text><rect x="706" y="546" width="210" height="48" rx="14" fill="#111c2f" stroke="#7c3aed"/><text x="728" y="576" class="body">Hidden Strengths</text><rect x="936" y="546" width="250" height="48" rx="14" fill="#111c2f" stroke="#7c3aed"/><text x="958" y="576" class="body">Recruiter Explanation</text>
  <rect x="300" y="656" width="520" height="170" rx="20" fill="#0c1a2e" stroke="#16a34a" filter="url(#shadow)"/><text x="326" y="692" class="h2">Evidence Ledger</text><text x="326" y="730" class="strong">Strong Proof</text><text x="430" y="730" class="body">production semantic search and candidate matching</text><text x="326" y="768" class="strong">Source Field</text><text x="430" y="768" class="body">career history description</text>
  <rect x="856" y="656" width="520" height="170" rx="20" fill="#0c1a2e" stroke="#f97316" filter="url(#shadow)"/><text x="882" y="692" class="h2">Risk Radar</text><text x="882" y="734" class="body">No structured high-risk flags detected for this candidate.</text><text x="882" y="772" class="body">Recruiter should verify exact ranking metrics and production ownership.</text>
</svg>
