<svg width="1440" height="900" viewBox="0 0 1440 900" fill="none" xmlns="http://www.w3.org/2000/svg">
  <defs><filter id="shadow"><feDropShadow dx="0" dy="12" stdDeviation="14" flood-color="#000" flood-opacity=".35"/></filter><style>.h1{font:700 34px Arial,sans-serif;fill:#f8fafc}.h2{font:700 18px Arial,sans-serif;fill:#f8fafc}.label{font:700 12px Arial,sans-serif;fill:#94a3b8;letter-spacing:.04em}.body{font:500 15px Arial,sans-serif;fill:#cbd5e1}.table{font:600 15px Arial,sans-serif;fill:#e2e8f0}.small{font:600 12px Arial,sans-serif;fill:#a5b4fc}.green{font:700 13px Arial,sans-serif;fill:#86efac}.red{font:700 13px Arial,sans-serif;fill:#fecaca}</style></defs>
  <rect width="1440" height="900" fill="#07111f"/><rect x="20" y="20" width="236" height="860" rx="22" fill="#0f172a" stroke="#1e293b"/><text x="52" y="66" class="h2">Recruiter Intelligence</text><text x="52" y="88" class="small">EvidenceGraph Ranker</text><rect x="42" y="232" width="172" height="42" rx="10" fill="#2563eb"/><text x="66" y="258" class="table">Candidates</text><text x="66" y="158" class="body">Dashboard</text><text x="66" y="314" class="body">Compare</text><text x="66" y="364" class="body">Trust Audit</text>
  <text x="300" y="72" class="h1">Candidates</text><text x="300" y="102" class="body">4 ranked profiles • FastAPI backend • intended dataset</text>
  <rect x="300" y="144" width="1076" height="656" rx="22" fill="#0c1a2e" stroke="#253756" filter="url(#shadow)"/>
  <text x="330" y="190" class="label">RANK</text><text x="420" y="190" class="label">CANDIDATE</text><text x="620" y="190" class="label">FINAL</text><text x="720" y="190" class="label">FIT</text><text x="805" y="190" class="label">PROOF</text><text x="900" y="190" class="label">CONF</text><text x="990" y="190" class="label">RISK</text><text x="1095" y="190" class="label">REVIEW TAG</text><text x="1260" y="190" class="label">STATUS</text>
  <line x1="330" y1="214" x2="1348" y2="214" stroke="#253756"/>
  <rect x="326" y="238" width="1018" height="92" rx="16" fill="#111c2f" stroke="#1e40af"/><text x="338" y="292" class="table">1</text><text x="420" y="292" class="table">CAND_DEMO_001</text><text x="620" y="292" class="table">100</text><text x="720" y="292" class="table">100</text><text x="805" y="292" class="table">47</text><text x="900" y="292" class="table">84</text><text x="990" y="292" class="green">Low</text><text x="1095" y="292" class="table">No major blocker</text><text x="1260" y="292" class="green">Shortlist</text>
  <rect x="326" y="356" width="1018" height="92" rx="16" fill="#111c2f" stroke="#334155"/><text x="338" y="410" class="table">2</text><text x="420" y="410" class="table">CAND_DEMO_002</text><text x="620" y="410" class="table">87</text><text x="720" y="410" class="table">62</text><text x="805" y="410" class="table">19</text><text x="900" y="410" class="table">24</text><text x="990" y="410" fill="#fde68a" font-family="Arial" font-weight="700" font-size="13">Review</text><text x="1095" y="410" class="table">Weak ranking evidence</text><text x="1260" y="410" fill="#fde68a" font-family="Arial" font-weight="700" font-size="13">Verify</text>
  <rect x="326" y="474" width="1018" height="92" rx="16" fill="#111c2f" stroke="#334155"/><text x="338" y="528" class="table">3</text><text x="420" y="528" class="table">CAND_DEMO_004</text><text x="620" y="528" class="table">59</text><text x="720" y="528" class="table">90</text><text x="805" y="528" class="table">34</text><text x="900" y="528" class="table">48</text><text x="990" y="528" class="red">High</text><text x="1095" y="528" class="table">Missing production proof</text><text x="1260" y="528" class="red">Risk</text>
  <rect x="326" y="592" width="1018" height="92" rx="16" fill="#111c2f" stroke="#334155"/><text x="338" y="646" class="table">4</text><text x="420" y="646" class="table">CAND_DEMO_003</text><text x="620" y="646" class="table">28</text><text x="720" y="646" class="table">20</text><text x="805" y="646" class="table">8</text><text x="900" y="646" class="table">21</text><text x="990" y="646" class="red">High</text><text x="1095" y="646" class="table">Strong claims, weak proof</text><text x="1260" y="646" class="red">Reject</text>
  <rect x="326" y="724" width="1018" height="44" rx="14" fill="#081526" stroke="#1d4ed8"/><text x="350" y="752" class="body">Ranking combines Gemini-assisted context with deterministic evidence scoring, risk validation and recruiter review tags.</text>
</svg>
