<svg width="1440" height="900" viewBox="0 0 1440 900" fill="none" xmlns="http://www.w3.org/2000/svg">
  <defs><filter id="shadow"><feDropShadow dx="0" dy="12" stdDeviation="14" flood-color="#000" flood-opacity=".35"/></filter><style>.h1{font:700 34px Arial,sans-serif;fill:#f8fafc}.h2{font:700 20px Arial,sans-serif;fill:#f8fafc}.label{font:700 12px Arial,sans-serif;fill:#94a3b8;letter-spacing:.04em}.body{font:500 16px Arial,sans-serif;fill:#cbd5e1}.small{font:600 12px Arial,sans-serif;fill:#a5b4fc}.file{font:700 16px Arial,sans-serif;fill:#f8fafc}</style></defs>
  <rect width="1440" height="900" fill="#07111f"/><rect x="20" y="20" width="236" height="860" rx="22" fill="#0f172a" stroke="#1e293b"/><text x="52" y="66" class="h2">Recruiter Intelligence</text><text x="52" y="88" class="small">EvidenceGraph Ranker</text><rect x="42" y="382" width="172" height="42" rx="10" fill="#2563eb"/><text x="66" y="408" class="h2">Exports</text>
  <text x="300" y="72" class="h1">Exports &amp; Reports</text><text x="300" y="102" class="body">Challenge-ready files plus recruiter-friendly audit artifacts.</text>
  <rect x="300" y="150" width="1076" height="610" rx="24" fill="#0c1a2e" stroke="#253756" filter="url(#shadow)"/>
  <text x="334" y="196" class="label">SUBMISSION OUTPUTS</text>
  <rect x="334" y="224" width="300" height="96" rx="18" fill="#111c2f" stroke="#2563eb"/><text x="364" y="264" class="file">submission.csv</text><text x="364" y="292" class="body">Required challenge format</text>
  <rect x="664" y="224" width="300" height="96" rx="18" fill="#111c2f" stroke="#2563eb"/><text x="694" y="264" class="file">ranked_candidates.json</text><text x="694" y="292" class="body">Scores, evidence and AI metadata</text>
  <rect x="994" y="224" width="300" height="96" rx="18" fill="#111c2f" stroke="#2563eb"/><text x="1024" y="264" class="file">ranked_candidates.csv</text><text x="1024" y="292" class="body">Spreadsheet-friendly shortlist</text>
  <text x="334" y="386" class="label">RECRUITER ARTIFACTS</text>
  <rect x="334" y="414" width="300" height="96" rx="18" fill="#111c2f" stroke="#14b8a6"/><text x="364" y="454" class="file">battlecards.md</text><text x="364" y="482" class="body">Candidate summary cards</text>
  <rect x="664" y="414" width="300" height="96" rx="18" fill="#111c2f" stroke="#14b8a6"/><text x="694" y="454" class="file">evidence_ledgers.json</text><text x="694" y="482" class="body">Claims, proof, risks, missing evidence</text>
  <rect x="994" y="414" width="300" height="96" rx="18" fill="#111c2f" stroke="#14b8a6"/><text x="1024" y="454" class="file">comparison output</text><text x="1024" y="482" class="body">A/B candidate verification</text>
  <text x="334" y="576" class="label">VALIDATION &amp; PERFORMANCE</text>
  <rect x="334" y="604" width="300" height="96" rx="18" fill="#111c2f" stroke="#7c3aed"/><text x="364" y="644" class="file">evaluation_report.md</text><text x="364" y="672" class="body">Proxy or labeled metrics</text>
  <rect x="664" y="604" width="300" height="96" rx="18" fill="#111c2f" stroke="#7c3aed"/><text x="694" y="644" class="file">performance_report.md</text><text x="694" y="672" class="body">CPU runtime benchmark</text>
  <rect x="994" y="604" width="300" height="96" rx="18" fill="#111c2f" stroke="#7c3aed"/><text x="1024" y="644" class="file">data_quality_report.json</text><text x="1024" y="672" class="body">Input assumptions and coverage</text>
</svg>
