<svg width="1440" height="900" viewBox="0 0 1440 900" fill="none" xmlns="http://www.w3.org/2000/svg">
  <defs><filter id="shadow"><feDropShadow dx="0" dy="12" stdDeviation="14" flood-color="#000" flood-opacity=".35"/></filter><style>.h1{font:700 34px Arial,sans-serif;fill:#f8fafc}.h2{font:700 18px Arial,sans-serif;fill:#f8fafc}.label{font:700 12px Arial,sans-serif;fill:#94a3b8;letter-spacing:.04em}.body{font:500 15px Arial,sans-serif;fill:#cbd5e1}.num{font:700 30px Arial,sans-serif;fill:#fff}.small{font:600 12px Arial,sans-serif;fill:#a5b4fc}</style></defs>
  <rect width="1440" height="900" fill="#07111f"/><rect x="20" y="20" width="236" height="860" rx="22" fill="#0f172a" stroke="#1e293b"/><text x="52" y="66" class="h2">Recruiter Intelligence</text><text x="52" y="88" class="small">EvidenceGraph Ranker</text><rect x="42" y="332" width="172" height="42" rx="10" fill="#2563eb"/><text x="66" y="358" class="h2">Trust Audit</text>
  <text x="300" y="72" class="h1">Trust Audit</text><text x="300" y="102" class="body">Limitations, risk and proof-health summary from the latest ranking payload.</text>
  <rect x="300" y="136" width="1076" height="58" rx="16" fill="#111c2f" stroke="#334155"/><text x="326" y="172" class="body">No labels supplied: evaluation and trust counts are audit/proxy signals, not recruiter accuracy.</text>
  <g filter="url(#shadow)">
    <rect x="300" y="226" width="330" height="94" rx="18" fill="#0c1a2e" stroke="#253756"/><text x="326" y="258" class="label">TOTAL CANDIDATES</text><text x="326" y="300" class="num">4</text>
    <rect x="664" y="226" width="330" height="94" rx="18" fill="#0c1a2e" stroke="#253756"/><text x="690" y="258" class="label">SHORTLISTED</text><text x="690" y="300" class="num">4</text>
    <rect x="1028" y="226" width="348" height="94" rx="18" fill="#0c1a2e" stroke="#253756"/><text x="1054" y="258" class="label">AVG CONFIDENCE</text><text x="1054" y="300" class="num">41</text>
    <rect x="300" y="344" width="330" height="94" rx="18" fill="#0c1a2e" stroke="#253756"/><text x="326" y="376" class="label">AVG PROOF</text><text x="326" y="418" class="num">26</text>
    <rect x="664" y="344" width="330" height="94" rx="18" fill="#0c1a2e" stroke="#253756"/><text x="690" y="376" class="label">HIGH RISK</text><text x="690" y="418" class="num">3</text>
    <rect x="1028" y="344" width="348" height="94" rx="18" fill="#0c1a2e" stroke="#253756"/><text x="1054" y="376" class="label">MISSING EVIDENCE</text><text x="1054" y="418" class="num">3</text>
  </g>
  <rect x="300" y="472" width="1076" height="132" rx="20" fill="#0c1a2e" stroke="#253756" filter="url(#shadow)"/><text x="326" y="510" class="h2">Score Distribution</text>
  <text x="326" y="548" class="body">0–39</text><rect x="410" y="536" width="820" height="12" rx="6" fill="#1e293b"/><rect x="410" y="536" width="410" height="12" rx="6" fill="#60a5fa"/><text x="1260" y="548" class="body">1</text>
  <text x="326" y="580" class="body">80–100</text><rect x="410" y="568" width="820" height="12" rx="6" fill="#1e293b"/><rect x="410" y="568" width="820" height="12" rx="6" fill="#14b8a6"/><text x="1260" y="580" class="body">2</text>
  <rect x="300" y="638" width="500" height="160" rx="20" fill="#0c1a2e" stroke="#f97316" filter="url(#shadow)"/><text x="326" y="674" class="h2">Risk Severity Counts</text><text x="326" y="716" class="body">High risk profiles</text><rect x="500" y="704" width="230" height="12" rx="6" fill="#f97316"/><text x="744" y="716" class="body">4</text><text x="326" y="754" class="body">Medium risk profiles</text><rect x="500" y="742" width="80" height="12" rx="6" fill="#fbbf24"/><text x="744" y="754" class="body">1</text>
  <rect x="836" y="638" width="540" height="160" rx="20" fill="#0c1a2e" stroke="#7c3aed" filter="url(#shadow)"/><text x="862" y="674" class="h2">Verification Priorities</text><text x="862" y="716" class="body">• Validate career-backed ranking proof</text><text x="862" y="748" class="body">• Confirm production ownership details</text><text x="862" y="780" class="body">• Review location, availability and low confidence signals</text>
</svg>
