<svg width="1440" height="900" viewBox="0 0 1440 900" fill="none" xmlns="http://www.w3.org/2000/svg">
  <defs>
    <filter id="shadow"><feDropShadow dx="0" dy="12" stdDeviation="14" flood-color="#000" flood-opacity=".35"/></filter>
    <style>
      .h1{font:700 34px Arial,sans-serif;fill:#f8fafc}.h2{font:700 18px Arial,sans-serif;fill:#f8fafc}
      .label{font:700 12px Arial,sans-serif;fill:#94a3b8;letter-spacing:.04em}.body{font:500 15px Arial,sans-serif;fill:#cbd5e1}
      .num{font:700 30px Arial,sans-serif;fill:#fff}.small{font:600 12px Arial,sans-serif;fill:#a5b4fc}
      .chip{font:700 12px Arial,sans-serif;fill:#dbeafe}.table{font:600 14px Arial,sans-serif;fill:#e2e8f0}
    </style>
  </defs>
  <rect width="1440" height="900" fill="#07111f"/>
  <rect x="20" y="20" width="236" height="860" rx="22" fill="#0f172a" stroke="#1e293b"/>
  <text x="52" y="66" class="h2">Recruiter Intelligence</text><text x="52" y="88" class="small">EvidenceGraph Ranker</text>
  <rect x="42" y="132" width="172" height="42" rx="10" fill="#2563eb"/><text x="66" y="158" class="table">Dashboard</text>
  <text x="66" y="214" class="body">Run Ranking</text><text x="66" y="264" class="body">Candidates</text><text x="66" y="314" class="body">Compare</text><text x="66" y="364" class="body">Trust Audit</text><text x="66" y="414" class="body">Exports</text>
  <text x="300" y="72" class="h1">Dashboard</text><text x="300" y="100" class="body">Source: FastAPI backend • Intended dataset</text>
  <g filter="url(#shadow)">
    <rect x="300" y="136" width="196" height="128" rx="18" fill="#111c2f" stroke="#253756"/><text x="324" y="168" class="label">TOTAL CANDIDATES</text><text x="324" y="210" class="num">4</text><text x="324" y="238" class="body">Loaded into ranking run</text>
    <rect x="520" y="136" width="196" height="128" rx="18" fill="#111c2f" stroke="#253756"/><text x="544" y="168" class="label">SHORTLISTED</text><text x="544" y="210" class="num">4</text><text x="544" y="238" class="body">Visible ranked candidates</text>
    <rect x="740" y="136" width="196" height="128" rx="18" fill="#111c2f" stroke="#253756"/><text x="764" y="168" class="label">AVG CONFIDENCE</text><text x="764" y="210" class="num">41</text><text x="764" y="238" class="body">Normalized score</text>
    <rect x="960" y="136" width="196" height="128" rx="18" fill="#111c2f" stroke="#253756"/><text x="984" y="168" class="label">HIGH RISK</text><text x="984" y="210" class="num">2</text><text x="984" y="238" class="body">Profiles requiring review</text>
    <rect x="1180" y="136" width="196" height="128" rx="18" fill="#111c2f" stroke="#253756"/><text x="1204" y="168" class="label">RUNTIME</text><text x="1204" y="210" class="num">0.10s</text><text x="1204" y="238" class="body">Backend ranking time</text>
  </g>
  <rect x="300" y="300" width="1076" height="236" rx="20" fill="#0c1a2e" stroke="#1d4ed8" filter="url(#shadow)"/>
  <text x="326" y="336" class="small">JD UNDERSTANDING</text><text x="326" y="368" class="h2">Senior AI Engineer</text>
  <g>
    <rect x="326" y="394" width="310" height="54" rx="12" fill="#111c2f" stroke="#334155"/><text x="344" y="416" class="label">MUST HAVE</text><text x="344" y="438" class="chip">Python • FastAPI • vector search • ranking</text>
    <rect x="656" y="394" width="330" height="54" rx="12" fill="#111c2f" stroke="#334155"/><text x="674" y="416" class="label">STRONG SIGNALS</text><text x="674" y="438" class="chip">retrieval systems • candidate matching</text>
    <rect x="1006" y="394" width="330" height="54" rx="12" fill="#111c2f" stroke="#334155"/><text x="1024" y="416" class="label">GOOD TO HAVE</text><text x="1024" y="438" class="chip">Kubernetes • MLOps • recommender systems</text>
    <rect x="326" y="464" width="310" height="46" rx="12" fill="#111c2f" stroke="#334155"/><text x="344" y="492" class="body">Location: Pune or Bangalore, India</text>
    <rect x="656" y="464" width="330" height="46" rx="12" fill="#111c2f" stroke="#334155"/><text x="674" y="492" class="body">Notice under 45 days</text>
    <rect x="1006" y="464" width="330" height="46" rx="12" fill="#111c2f" stroke="#334155"/><text x="1024" y="492" class="body">Risk blockers: no production ownership</text>
  </g>
  <rect x="300" y="570" width="1076" height="250" rx="20" fill="#0c1a2e" stroke="#253756" filter="url(#shadow)"/>
  <text x="326" y="606" class="label">RANK</text><text x="398" y="606" class="label">CANDIDATE</text><text x="560" y="606" class="label">FINAL</text><text x="650" y="606" class="label">FIT</text><text x="730" y="606" class="label">PROOF</text><text x="830" y="606" class="label">RISK</text><text x="950" y="606" class="label">REVIEW TAG</text><text x="1130" y="606" class="label">MAIN REASON</text>
  <line x1="326" y1="626" x2="1348" y2="626" stroke="#253756"/>
  <text x="326" y="662" class="table">1</text><text x="398" y="662" class="table">CAND_DEMO_001</text><text x="560" y="662" class="table">100</text><text x="650" y="662" class="table">100</text><text x="730" y="662" class="table">47</text><text x="830" y="662" class="chip">Low</text><text x="950" y="662" class="table">No major blocker</text><text x="1130" y="662" class="body">Production search and matching proof</text>
  <text x="326" y="716" class="table">2</text><text x="398" y="716" class="table">CAND_DEMO_002</text><text x="560" y="716" class="table">87</text><text x="650" y="716" class="table">62</text><text x="730" y="716" class="table">19</text><text x="830" y="716" class="chip">Review</text><text x="950" y="716" class="table">Weak ranking evidence</text><text x="1130" y="716" class="body">Backend proof; ranking depth unclear</text>
  <text x="326" y="770" class="table">3</text><text x="398" y="770" class="table">CAND_DEMO_004</text><text x="560" y="770" class="table">59</text><text x="650" y="770" class="table">90</text><text x="730" y="770" class="table">34</text><text x="830" y="770" fill="#fecaca" font-family="Arial" font-weight="700" font-size="14">High</text><text x="950" y="770" class="table">Missing production proof</text><text x="1130" y="770" class="body">Hybrid search with location risk</text>
</svg>
